<svg width="18" height="18" fill="none" xmlns="http://www.w3.org/2000/svg"><path d="M9 17A8 8 0 109 1a8 8 0 000 16z" stroke="#1C1C1C" stroke-width="1.09" stroke-linecap="round" stroke-linejoin="round"/><path d="M8.539 10.779c.007-.424.063-.765.169-1.024.105-.259.332-.563.68-.911.347-.353.57-.6.669-.744.101-.148.179-.308.232-.48.056-.176.084-.376.084-.598 0-.45-.118-.802-.353-1.057-.232-.259-.557-.388-.975-.388-.422 0-.763.124-1.023.372-.256.244-.388.577-.395.997H7c.007-.59.202-1.06.585-1.412.383-.356.87-.534 1.46-.534.604 0 1.08.181 1.428.544.351.36.527.849.527 1.467 0 .388-.086.753-.258 1.094-.172.338-.5.733-.98 1.186-.397.342-.596.838-.596 1.488h-.627zm-.084 1.8c0-.122.036-.224.11-.307a.41.41 0 01.322-.13c.133 0 .239.044.316.13.08.083.121.185.121.307 0 .12-.04.22-.121.302a.422.422 0 01-.316.119.429.429 0 01-.322-.119.437.437 0 01-.11-.302z" fill="#1C1C1C" stroke="#1C1C1C" stroke-width=".3" stroke-linecap="round" stroke-linejoin="round"/></svg>